<svg width="597" height="606" viewBox="0 0 597 606" fill="none" xmlns="http://www.w3.org/2000/svg">
<g filter="url(#filter0_d_721_111)">
<path d="M54.1877 218.381C59.3893 219.727 74.0698 225.501 78.7629 222.204C81.8745 220.018 82.6603 212.193 83.8166 208.721C87.5124 197.626 91.4853 186.464 96.487 175.878C110.757 145.678 131.499 116.914 155.649 93.8576C201.599 49.9879 262.325 21.6943 326.645 23.2696C350.773 23.8605 372.816 30.0067 396.209 34.8471L404.904 11.6638C319.571 -12.5467 229.019 0.23916 158.533 56.5322C136.649 74.0094 117.301 95.1849 100.977 117.92C78.7933 148.817 65.6693 182.481 54.1877 218.381ZM429.058 56.0984L470.603 96.669L493.791 117.92C499.055 99.2372 502.486 79.3913 502.486 59.9622C502.486 56.1435 504.681 45.1395 502.422 42.2297C499.976 39.0812 487.641 42.2072 484.129 42.7007C465.81 45.275 446.071 48.568 429.058 56.0984ZM127.616 246.394H128.582L150.804 224.177C154.12 220.862 157.855 215.612 162.398 213.992C166.13 212.66 171.187 214.488 174.958 215.073C184.61 216.57 194.301 217.673 203.943 219.269C212.881 220.75 224.882 220.9 232.927 225.278C238.48 228.299 242.723 234.134 247.333 238.376C260.63 250.614 272.85 263.944 286.066 276.253C305.335 294.198 329.023 312.442 345.002 333.331H347.901L362.393 317.876C366.838 340.793 372.211 363.522 376.51 386.46C378.008 394.453 383.042 406.453 381.505 414.473C379.905 422.821 367.2 431.937 361.427 437.652C359.417 439.642 354.993 442.509 354.588 445.533C353.895 450.704 368.497 461.146 372.055 464.703H373.021L421.329 415.439L441.588 395.153L441.632 383.562L440.69 355.549L438.996 281.169L438.137 261.85L426.16 246.394C454.604 232.228 473.993 195.511 482.333 166.219C484.566 158.376 490.332 144.302 487.41 136.274C485.488 130.993 479.307 126.622 475.434 122.75C466.243 113.561 456.597 104.879 447.415 95.7031C439.496 87.7889 431.342 80.207 423.261 72.4818C420.048 69.4098 416.357 63.9995 411.667 63.2678C405.289 62.2727 395.09 68.6765 389.446 71.3422C367.864 81.5343 347.54 94.9517 331.755 113.09C326.539 119.085 320.741 132.448 313.882 136.058C306.226 140.087 291.721 137.706 283.168 138.292L216.503 142.949C207.425 143.574 194.036 142.435 185.586 145.55C179.896 147.648 176.051 154.278 172.021 158.491C162.759 168.176 153.485 177.981 144.04 187.47C134.999 196.553 126.154 205.875 117.678 215.483C115.304 218.175 109.459 222.178 109.459 226.109C109.459 232.386 123.365 242.144 127.616 246.394ZM446.449 197.13V198.096C438.224 206.319 430.523 214.988 422.295 223.211C419.952 225.552 416.316 230.739 412.633 230.739C406.254 230.739 395.019 215.842 390.374 211.455C369.242 191.499 349.132 170.348 328.577 149.797C332.201 144.653 336.819 139.865 341.176 135.308C344.83 131.485 348.382 127.635 351.929 123.716C354.299 121.098 357.735 116.344 361.34 115.468C365.6 114.433 375.255 125.997 376.772 129.512C378.4 133.283 376.685 138.942 376.972 143.036C377.637 152.539 382.15 161.551 389.46 167.702C396.733 173.822 405.173 177.276 414.566 178.497C418.645 179.027 423.244 178.034 427.126 179.605C434.59 182.626 440.858 191.54 446.449 197.13ZM413.6 118.287C439.123 113.05 449.04 152.023 423.261 157.98C397.707 163.884 387.978 123.545 413.6 118.287ZM541.133 117.92C536.864 122.188 526.588 129.146 525.559 135.308C524.614 140.969 533.669 150.875 536.495 155.593C545.568 170.742 551.853 187.018 556.861 203.892C572.135 255.352 572.136 313.238 554.98 364.242C531.13 435.15 476.472 495.484 405.87 522.104C391.705 527.445 377.239 531.38 362.393 534.253C355.116 535.661 346.477 537.769 339.191 535.422C336.35 534.507 330.564 532.085 330.563 528.432C330.563 524.819 336.467 521.527 338.432 518.783C344.663 510.081 341.568 497.123 330.51 494.221C317.909 490.914 311.299 501.297 303.457 509.137L252.251 560.334C246.068 566.508 234.257 574.484 232.515 583.517C230.567 593.621 243.005 599.764 251.27 595.94C264.75 589.704 271.393 570.799 285.1 565.746C290.15 563.885 297.171 565.28 302.491 565.149C312.763 564.898 323.148 563.864 333.408 563.145C360.287 561.262 387.371 555.459 412.633 546.152C541.838 498.55 611.162 361.833 588.874 229.007C584.112 200.629 574.608 173.298 561.21 147.865C555.903 137.791 550.095 125.215 541.133 117.92ZM259.98 161.389L251.796 176.671L227.13 178.776L174.958 182.64C178.475 176.556 184.99 168.475 191.383 165.28C196.775 162.584 204.83 164.682 210.706 164.123C227.058 162.567 243.534 161.389 259.98 161.389ZM331.438 205.189C372.085 201.222 379.533 266.043 339.205 270.376C332.883 271.055 325.749 270.918 319.882 268.272C289.008 254.344 299.054 208.35 331.438 205.189ZM227.13 263.782V264.748C247.9 285.513 269.15 305.793 289.931 326.569C299.674 336.311 311.218 351.639 323.747 357.48L334.374 345.889C328.883 338.094 320.802 332.316 314.085 325.604C298.13 309.657 281.731 294.222 265.777 278.271C259.499 271.994 248.483 256.647 239.691 254.456C235.206 253.338 229.89 261.022 227.13 263.782ZM196.213 295.658V296.624C199.287 299.697 208.793 306.323 208.164 311.114C206.987 320.072 192.464 323.39 191.491 333.331C190.599 342.452 199.37 348.354 207.807 345.173C215.117 342.417 222.751 333.751 227.13 327.535H228.097C230.972 331.616 240.603 337.899 240.603 342.991C240.603 352.615 222.056 358.325 220.789 369.072C219.757 377.83 230.078 383.833 237.758 380.913C245.739 377.877 255.156 366.259 259.98 359.412H260.946C262.98 362.276 269.588 366.508 269.588 370.076C269.588 377.44 255.407 383.853 252.931 391.289C250.475 398.664 257.299 406.149 264.811 405.555C269.76 405.163 273.953 401.386 277.281 398.027C281.501 393.767 285.01 388.993 289.931 385.494C295.549 396.636 314.035 375.52 311.427 370.038C306.688 360.08 292.974 351.446 285.1 343.919C271.62 331.031 258.927 317.325 245.491 304.391C236.109 295.359 225.01 287.042 217.469 276.339C208.794 278.773 201.951 289.092 196.213 295.658ZM137.278 295.208C130.811 296.748 126.855 302.538 122.523 307.085C114.949 315.038 106.966 322.535 99.4191 330.52C80.7818 350.237 60.7402 369.307 40.9753 387.891C29.8637 398.339 16.284 408.778 7.39895 421.234C0.863322 430.397 7.60092 441.165 18.4397 440.497C31.4877 439.694 46.4966 418.298 55.1538 409.643C74.1769 390.623 93.174 370.862 113.123 352.815C125.531 341.59 142.339 328.923 151.529 314.891C158.052 304.932 148.608 292.51 137.278 295.208ZM421.329 295.658L421.343 357.48L421.716 384.528L407.803 399.983C407.803 381.501 408.014 362.404 406.75 343.957C406.101 334.475 403.092 320.228 406.453 311.114C408.645 305.171 416.29 299.207 421.329 295.658ZM35.8306 327.109C26.2996 329.563 7.46706 348.114 4.57873 357.48C1.1593 368.569 13.602 376.084 23.2705 373.484C32.5136 370.998 50.8114 352.857 53.2625 343.957C56.0518 333.829 45.6585 324.579 35.8306 327.109ZM140.176 374.431C134.521 375.657 130.547 380.633 126.65 384.528L102.496 408.677C82.0956 429.073 61.5708 449.4 40.7479 469.365C29.4313 480.215 15.5358 490.629 6.29859 503.342C-0.0829661 512.124 8.26601 523.339 18.4397 522.357C23.9521 521.825 28.3043 516.644 31.966 513.001L55.1538 489.818C74.8215 470.162 94.6706 450.334 114.878 431.209C127.176 419.568 142.321 408.013 152.183 394.187C158.487 385.349 151.593 371.955 140.176 374.431ZM202.976 389.897C196.007 390.734 191.184 397.284 186.552 401.915C174.856 413.608 162.431 424.946 151.524 437.38C116.159 477.696 73.776 512.783 35.8306 550.674C26.3415 560.15 12.7567 568.988 5.88931 580.619C0.939952 589.001 8.97255 597.468 17.4736 597.901C25.0838 598.29 29.9726 591.251 34.8644 586.419C46.3591 575.063 58.2029 564.047 69.6462 552.606C104.105 518.154 139.526 484.672 173.992 450.213C186.861 437.346 201.68 425.483 213.398 411.575C220.754 402.843 215.673 388.372 202.976 389.897ZM303.457 446.101C290.121 451.189 278.224 470.28 267.695 479.995C243.962 501.895 220.985 524.942 198.146 547.776C187.765 558.155 174.391 567.678 165.849 579.653C159.115 589.094 168.321 599.643 178.822 597.785C184.436 596.792 189.404 591.175 193.315 587.367C200.953 579.93 208.7 572.517 216.503 565.25C241.315 542.142 265.947 518.627 289.931 494.648C299.173 485.408 313.201 475.912 319.873 464.703C326.005 454.4 314.395 441.927 303.457 446.101ZM221.334 451.895C208.399 452.088 193.181 474.496 184.619 483.056C152.724 514.945 117.76 544.716 87.2019 577.811C80.056 585.551 82.3192 596.513 93.8003 597.824C107.966 599.441 122.607 577.858 131.481 569.028C163.146 537.522 199.033 508.909 228.492 475.291C235.985 466.739 236.457 451.669 221.334 451.895Z" fill="url(#paint0_linear_721_111)"/>
</g>
<defs>
<filter id="filter0_d_721_111" x="0" y="0" width="597" height="606" filterUnits="userSpaceOnUse" color-interpolation-filters="sRGB">
<feFlood flood-opacity="0" result="BackgroundImageFix"/>
<feColorMatrix in="SourceAlpha" type="matrix" values="0 0 0 0 0 0 0 0 0 0 0 0 0 0 0 0 0 0 127 0" result="hardAlpha"/>
<feOffset dy="4"/>
<feGaussianBlur stdDeviation="2"/>
<feComposite in2="hardAlpha" operator="out"/>
<feColorMatrix type="matrix" values="0 0 0 0 0 0 0 0 0 0 0 0 0 0 0 0 0 0 0.25 0"/>
<feBlend mode="normal" in2="BackgroundImageFix" result="effect1_dropShadow_721_111"/>
<feBlend mode="normal" in="SourceGraphic" in2="effect1_dropShadow_721_111" result="shape"/>
</filter>
<linearGradient id="paint0_linear_721_111" x1="298.5" y1="0" x2="298.5" y2="598" gradientUnits="userSpaceOnUse">
<stop stop-color="#1B4ADD"/>
<stop offset="0.520833" stop-color="#12AAFF" stop-opacity="0.76"/>
<stop offset="0.723958" stop-color="#1683F1" stop-opacity="0.57"/>
<stop offset="0.828125" stop-color="#C48440" stop-opacity="0.83"/>
<stop offset="1" stop-color="#FF7700" stop-opacity="0.51"/>
</linearGradient>
</defs>
</svg>
