<svg width="589" height="598" viewBox="0 0 589 598" fill="none" xmlns="http://www.w3.org/2000/svg">
<path d="M50.1877 218.381C55.3893 219.727 70.0698 225.501 74.7629 222.204C77.8745 220.018 78.6603 212.193 79.8166 208.721C83.5124 197.626 87.4853 186.464 92.487 175.878C106.757 145.678 127.499 116.914 151.649 93.8576C197.599 49.988 258.325 21.6943 322.645 23.2696C346.773 23.8605 368.816 30.0067 392.209 34.8471L400.904 11.6638C315.571 -12.5467 225.019 0.239159 154.533 56.5322C132.649 74.0095 113.301 95.1849 96.9771 117.92C74.7933 148.817 61.6693 182.481 50.1877 218.381ZM425.058 56.0984L466.603 96.669L489.791 117.92C495.055 99.2372 498.486 79.3913 498.486 59.9622C498.486 56.1435 500.681 45.1395 498.422 42.2297C495.976 39.0812 483.641 42.2072 480.129 42.7007C461.81 45.275 442.071 48.568 425.058 56.0984ZM123.616 246.394H124.582L146.804 224.177C150.12 220.862 153.855 215.612 158.398 213.992C162.13 212.66 167.187 214.488 170.958 215.073C180.61 216.57 190.301 217.673 199.943 219.269C208.881 220.75 220.882 220.9 228.927 225.278C234.48 228.299 238.723 234.134 243.333 238.376C256.63 250.614 268.85 263.944 282.066 276.253C301.335 294.198 325.023 312.442 341.002 333.331H343.901L358.393 317.876C362.838 340.793 368.211 363.522 372.51 386.46C374.008 394.453 379.042 406.453 377.505 414.473C375.905 422.821 363.2 431.937 357.427 437.652C355.417 439.642 350.993 442.509 350.588 445.533C349.895 450.704 364.497 461.146 368.055 464.703H369.021L417.329 415.439L437.588 395.153L437.632 383.562L436.69 355.549L434.996 281.169L434.137 261.85L422.16 246.394C450.604 232.228 469.993 195.511 478.333 166.219C480.566 158.376 486.332 144.302 483.41 136.274C481.488 130.993 475.307 126.622 471.434 122.75C462.243 113.561 452.597 104.879 443.415 95.7031C435.496 87.789 427.342 80.207 419.261 72.4818C416.048 69.4098 412.357 63.9995 407.667 63.2678C401.289 62.2727 391.09 68.6765 385.446 71.3422C363.864 81.5343 343.54 94.9517 327.755 113.09C322.539 119.085 316.741 132.448 309.882 136.058C302.226 140.087 287.721 137.706 279.168 138.292L212.503 142.949C203.425 143.574 190.036 142.435 181.586 145.55C175.896 147.648 172.051 154.278 168.021 158.491C158.759 168.176 149.485 177.981 140.04 187.47C130.999 196.553 122.154 205.875 113.678 215.483C111.304 218.175 105.459 222.178 105.459 226.109C105.459 232.386 119.365 242.144 123.616 246.394ZM442.449 197.13V198.096C434.224 206.319 426.523 214.988 418.295 223.211C415.952 225.552 412.316 230.739 408.633 230.739C402.254 230.739 391.019 215.842 386.374 211.455C365.242 191.499 345.132 170.348 324.577 149.797C328.201 144.653 332.819 139.865 337.176 135.308C340.83 131.485 344.382 127.635 347.929 123.716C350.299 121.098 353.735 116.344 357.34 115.468C361.6 114.433 371.255 125.997 372.772 129.512C374.4 133.283 372.685 138.942 372.972 143.036C373.637 152.539 378.15 161.551 385.46 167.702C392.733 173.823 401.173 177.276 410.566 178.497C414.645 179.027 419.244 178.034 423.126 179.605C430.59 182.626 436.858 191.54 442.449 197.13ZM409.6 118.287C435.123 113.05 445.04 152.023 419.261 157.98C393.707 163.884 383.978 123.545 409.6 118.287ZM537.133 117.92C532.864 122.188 522.588 129.146 521.559 135.308C520.614 140.969 529.669 150.875 532.495 155.593C541.568 170.742 547.853 187.018 552.861 203.892C568.135 255.353 568.136 313.238 550.98 364.242C527.13 435.15 472.472 495.484 401.87 522.104C387.705 527.445 373.239 531.38 358.393 534.253C351.116 535.661 342.477 537.769 335.191 535.422C332.35 534.507 326.564 532.085 326.563 528.432C326.563 524.819 332.467 521.527 334.432 518.783C340.663 510.081 337.568 497.123 326.51 494.221C313.909 490.914 307.299 501.297 299.457 509.138L248.251 560.334C242.068 566.508 230.257 574.484 228.515 583.517C226.567 593.621 239.005 599.764 247.27 595.941C260.75 589.705 267.393 570.799 281.1 565.747C286.15 563.885 293.172 565.28 298.491 565.15C308.763 564.898 319.148 563.864 329.408 563.145C356.287 561.262 383.371 555.46 408.633 546.152C537.838 498.55 607.162 361.833 584.874 229.007C580.112 200.629 570.608 173.298 557.21 147.865C551.903 137.791 546.095 125.215 537.133 117.92ZM255.98 161.389L247.796 176.671L223.13 178.776L170.958 182.64C174.475 176.556 180.99 168.475 187.383 165.28C192.775 162.584 200.83 164.682 206.706 164.123C223.058 162.567 239.534 161.389 255.98 161.389ZM327.438 205.189C368.085 201.222 375.533 266.043 335.205 270.376C328.883 271.055 321.749 270.918 315.882 268.272C285.008 254.345 295.054 208.35 327.438 205.189ZM223.13 263.782V264.748C243.9 285.513 265.15 305.793 285.931 326.57C295.674 336.311 307.218 351.639 319.747 357.481L330.374 345.889C324.883 338.094 316.802 332.317 310.085 325.604C294.13 309.658 277.731 294.222 261.777 278.271C255.499 271.994 244.483 256.647 235.691 254.456C231.206 253.338 225.891 261.022 223.13 263.782ZM192.213 295.659V296.624C195.287 299.697 204.793 306.323 204.164 311.114C202.987 320.072 188.464 323.39 187.491 333.331C186.599 342.452 195.37 348.354 203.807 345.173C211.117 342.417 218.751 333.751 223.13 327.536H224.097C226.972 331.616 236.603 337.899 236.603 342.991C236.603 352.615 218.056 358.325 216.789 369.072C215.757 377.83 226.078 383.833 233.758 380.913C241.739 377.877 251.156 366.259 255.98 359.412H256.946C258.98 362.276 265.588 366.508 265.588 370.076C265.588 377.44 251.407 383.853 248.931 391.289C246.475 398.664 253.299 406.149 260.811 405.555C265.76 405.163 269.953 401.386 273.281 398.027C277.501 393.767 281.01 388.993 285.931 385.494C291.549 396.636 310.035 375.52 307.427 370.038C302.688 360.08 288.974 351.447 281.1 343.919C267.62 331.031 254.927 317.325 241.491 304.391C232.109 295.359 221.01 287.042 213.469 276.339C204.794 278.773 197.951 289.092 192.213 295.659ZM133.278 295.208C126.811 296.748 122.855 302.538 118.523 307.085C110.949 315.038 102.966 322.535 95.4191 330.52C76.7818 350.237 56.7402 369.307 36.9753 387.891C25.8637 398.339 12.284 408.778 3.39895 421.234C-3.13668 430.397 3.60092 441.165 14.4397 440.497C27.4877 439.694 42.4966 418.298 51.1538 409.643C70.1769 390.624 89.174 370.862 109.123 352.815C121.531 341.59 138.339 328.923 147.529 314.891C154.052 304.932 144.608 292.51 133.278 295.208ZM417.329 295.659L417.343 357.481L417.716 384.528L403.803 399.983C403.803 381.501 404.014 362.404 402.75 343.957C402.101 334.475 399.092 320.228 402.453 311.114C404.645 305.171 412.29 299.207 417.329 295.659ZM31.8306 327.109C22.2996 329.563 3.46706 348.115 0.578731 357.481C-2.8407 368.569 9.60205 376.084 19.2705 373.484C28.5136 370.998 46.8114 352.857 49.2625 343.957C52.0518 333.829 41.6585 324.579 31.8306 327.109ZM136.176 374.431C130.521 375.658 126.547 380.633 122.65 384.528L98.4957 408.677C78.0956 429.073 57.5708 449.4 36.7479 469.365C25.4313 480.215 11.5358 490.629 2.29859 503.342C-4.08297 512.124 4.26601 523.339 14.4397 522.357C19.9521 521.825 24.3043 516.644 27.966 513.001L51.1538 489.818C70.8215 470.162 90.6706 450.334 110.878 431.209C123.176 419.568 138.321 408.013 148.183 394.187C154.487 385.349 147.593 371.955 136.176 374.431ZM198.976 389.897C192.007 390.734 187.184 397.284 182.552 401.915C170.856 413.608 158.431 424.946 147.524 437.38C112.159 477.696 69.776 512.783 31.8306 550.674C22.3415 560.15 8.75672 568.989 1.88931 580.619C-3.06005 589.001 4.97255 597.468 13.4736 597.902C21.0838 598.29 25.9726 591.251 30.8644 586.419C42.3591 575.063 54.2029 564.047 65.6462 552.606C100.105 518.154 135.526 484.672 169.992 450.213C182.861 437.346 197.68 425.483 209.398 411.575C216.754 402.843 211.673 388.372 198.976 389.897ZM299.457 446.101C286.121 451.189 274.224 470.28 263.695 479.995C239.962 501.895 216.985 524.942 194.146 547.776C183.765 558.155 170.391 567.678 161.849 579.653C155.115 589.094 164.321 599.643 174.822 597.785C180.436 596.792 185.404 591.175 189.315 587.367C196.953 579.93 204.7 572.517 212.503 565.25C237.315 542.142 261.947 518.627 285.931 494.648C295.173 485.408 309.201 475.912 315.873 464.703C322.005 454.4 310.395 441.928 299.457 446.101ZM217.334 451.895C204.399 452.088 189.181 474.497 180.619 483.056C148.724 514.945 113.76 544.716 83.2019 577.811C76.056 585.551 78.3192 596.513 89.8003 597.824C103.966 599.441 118.607 577.858 127.481 569.028C159.146 537.522 195.033 508.909 224.492 475.291C231.985 466.739 232.457 451.669 217.334 451.895Z" fill="url(#paint0_linear_750_113)"/>
<defs>
<linearGradient id="paint0_linear_750_113" x1="516.5" y1="25.5" x2="-30.5" y2="491.5" gradientUnits="userSpaceOnUse">
<stop stop-color="#1B4ADD" stop-opacity="0.69"/>
<stop offset="0.262819" stop-color="#1495F8" stop-opacity="0.8128"/>
<stop offset="0.377263" stop-color="#12AAFF" stop-opacity="0.76"/>
<stop offset="0.530377" stop-color="#1589F3" stop-opacity="0.602322"/>
<stop offset="0.577173" stop-color="#1683F1" stop-opacity="0.57"/>
<stop offset="0.670207" stop-color="#FF7700" stop-opacity="0.78"/>
<stop offset="0.838694" stop-color="#E37D1E" stop-opacity="0.47"/>
<stop offset="1" stop-color="#FFB13E" stop-opacity="0.16"/>
</linearGradient>
</defs>
</svg>
